<svg xmlns="http://www.w3.org/2000/svg" viewBox="0 0 125.11 125.11"><defs><style>.cls-1{fill:#ffd952;}.cls-2{fill:#fff;}</style></defs><title>Asset 27</title><g id="Layer_2" data-name="Layer 2"><g id="Layer_2-2" data-name="Layer 2"><path class="cls-1" d="M62.55,0a62.55,62.55,0,1,0,62.55,62.55A62.53,62.53,0,0,0,62.55,0Z"/><path class="cls-2" d="M60.54,59.3H81.64V86.88A59.25,59.25,0,0,1,72,89.23a62.62,62.62,0,0,1-9.26.67q-12,0-18.4-7.08T38,62.5q0-12.88,7.37-20.09t20.43-7.21a39.54,39.54,0,0,1,15.79,3.28l-3.75,9A26.77,26.77,0,0,0,65.71,44.6,15,15,0,0,0,54,49.51q-4.4,4.91-4.4,13.21,0,8.66,3.55,13.23t10.32,4.57a36.34,36.34,0,0,0,7.17-.73V68.68H60.54Z"/></g></g></svg>