<svg xmlns="http://www.w3.org/2000/svg" xmlns:xlink="http://www.w3.org/1999/xlink" viewBox="792.157 -145.757 15.738 15.738">
  <defs>
    <style>
      .cls-1 {
        fill: none;
      }

      .cls-2 {
        clip-path: url(#clip-path);
      }

      .cls-3 {
        fill: #959595;
      }
    </style>
    <clipPath id="clip-path">
      <path id="Path_1098" data-name="Path 1098" class="cls-1" d="M0-64.863H15.738v15.738H0Z" transform="translate(0 64.863)"/>
    </clipPath>
  </defs>
  <g id="Group_1595" data-name="Group 1595" transform="translate(792.157 -145.757)">
    <g id="Group_1594" data-name="Group 1594" class="cls-2" transform="translate(0 0)">
      <g id="Group_1592" data-name="Group 1592" transform="translate(0 0)">
        <path id="Path_1096" data-name="Path 1096" class="cls-3" d="M-38.754-38.753A6.414,6.414,0,0,1-40.8-37.374a6.388,6.388,0,0,1-2.5.5,6.39,6.39,0,0,1-2.5-.5,6.413,6.413,0,0,1-2.044-1.379A6.411,6.411,0,0,1-49.225-40.8a6.388,6.388,0,0,1-.5-2.5,6.388,6.388,0,0,1,.5-2.5,6.409,6.409,0,0,1,1.378-2.044A6.413,6.413,0,0,1-45.8-49.224a6.39,6.39,0,0,1,2.5-.5,6.388,6.388,0,0,1,2.5.5,6.413,6.413,0,0,1,2.044,1.378A6.412,6.412,0,0,1-37.375-45.8a6.388,6.388,0,0,1,.5,2.5,6.388,6.388,0,0,1-.5,2.5,6.415,6.415,0,0,1-1.378,2.044M-43.3-51.168A7.869,7.869,0,0,0-51.169-43.3,7.869,7.869,0,0,0-43.3-35.43,7.869,7.869,0,0,0-35.431-43.3,7.869,7.869,0,0,0-43.3-51.168" transform="translate(51.169 51.168)"/>
      </g>
      <g id="Group_1593" data-name="Group 1593" transform="translate(5.237 4.9)">
        <path id="Path_1097" data-name="Path 1097" class="cls-3" d="M-7.485-11.106h1.071v1.18a3.872,3.872,0,0,1-.762.077,1.3,1.3,0,0,1-1.1-.485,2.255,2.255,0,0,1-.377-1.406,2.024,2.024,0,0,1,.468-1.4,1.59,1.59,0,0,1,1.245-.522,2.84,2.84,0,0,1,1.288.31l.4-.959a4.2,4.2,0,0,0-1.679-.348A2.973,2.973,0,0,0-9.1-13.9a2.848,2.848,0,0,0-.783,2.135A3.13,3.13,0,0,0-9.208-9.6a2.49,2.49,0,0,0,1.955.752,6.679,6.679,0,0,0,.984-.072,6.3,6.3,0,0,0,1.027-.249V-12.1H-7.485Z" transform="translate(9.883 14.664)"/>
      </g>
    </g>
  </g>
</svg>
