<svg xmlns="http://www.w3.org/2000/svg" xmlns:xlink="http://www.w3.org/1999/xlink" viewBox="674 -149.98 15.98 15.98">
  <defs>
    <style>
      .cls-1 {
        fill: none;
      }

      .cls-2 {
        clip-path: url(#clip-path);
      }

      .cls-3 {
        fill: #959595;
      }
    </style>
    <clipPath id="clip-path">
      <path id="Path_1102" data-name="Path 1102" class="cls-1" d="M0-65.863H15.98v15.98H0Z" transform="translate(0 65.863)"/>
    </clipPath>
  </defs>
  <g id="Group_1614" data-name="Group 1614" transform="translate(373.992 -152.532)">
    <g id="Group_1599" data-name="Group 1599" class="cls-2" transform="translate(300.008 2.552)">
      <g id="Group_1596" data-name="Group 1596" transform="translate(3.004 5.212)">
        <path id="Path_1099" data-name="Path 1099" class="cls-3" d="M-13.334-11.9a.577.577,0,0,0-.394.155,1.613,1.613,0,0,1-1.1.431,1.621,1.621,0,0,1-1.62-1.62,1.621,1.621,0,0,1,1.62-1.62,1.615,1.615,0,0,1,1.1.43.577.577,0,0,0,.393.154.582.582,0,0,0,.426-.186.577.577,0,0,0,.154-.416.576.576,0,0,0-.186-.4,2.769,2.769,0,0,0-1.886-.739,2.781,2.781,0,0,0-2.778,2.778,2.781,2.781,0,0,0,2.778,2.778,2.771,2.771,0,0,0,1.888-.74.58.58,0,0,0,.032-.819.581.581,0,0,0-.425-.186" transform="translate(17.606 15.711)"/>
      </g>
      <g id="Group_1597" data-name="Group 1597" transform="translate(8.023 5.212)">
        <path id="Path_1100" data-name="Path 1100" class="cls-3" d="M-14.662-12.479a.581.581,0,0,0-.425-.186.577.577,0,0,0-.394.155,1.614,1.614,0,0,1-1.1.431A1.621,1.621,0,0,1-18.2-13.7a1.621,1.621,0,0,1,1.62-1.619,1.614,1.614,0,0,1,1.1.43.579.579,0,0,0,.393.154.582.582,0,0,0,.426-.186.576.576,0,0,0,.154-.416.577.577,0,0,0-.186-.4,2.77,2.77,0,0,0-1.886-.739A2.781,2.781,0,0,0-19.359-13.7a2.781,2.781,0,0,0,2.778,2.778,2.773,2.773,0,0,0,1.888-.74.58.58,0,0,0,.031-.819" transform="translate(19.359 16.477)"/>
      </g>
      <g id="Group_1598" data-name="Group 1598" transform="translate(0 0)">
        <path id="Path_1101" data-name="Path 1101" class="cls-3" d="M-24.941-45.425A6.65,6.65,0,0,1-31.5-51.987a6.65,6.65,0,0,1,6.562-6.562,6.65,6.65,0,0,1,6.562,6.562,6.65,6.65,0,0,1-6.562,6.562m0-14.552a8.1,8.1,0,0,0-7.99,7.99A8.1,8.1,0,0,0-24.941-44a8.1,8.1,0,0,0,7.99-7.99,8.1,8.1,0,0,0-7.99-7.99" transform="translate(32.931 59.977)"/>
      </g>
    </g>
  </g>
</svg>
