<svg xmlns="http://www.w3.org/2000/svg" viewBox="0 0 124.06 124.06"><defs><style>.cls-1{fill:#959595;}</style></defs><title>Asset 38</title><g id="Layer_2" data-name="Layer 2"><g id="Layer_2-2" data-name="Layer 2"><path class="cls-1" d="M62,11.15a50.6,50.6,0,1,1-50.6,50.6A50.51,50.51,0,0,1,62,11.15M62,0a62,62,0,1,0,62,62A62,62,0,0,0,62,0Z"/><path class="cls-1" d="M60,58.8H81V86.15a58.76,58.76,0,0,1-9.58,2.33,62.1,62.1,0,0,1-9.18.67q-11.95,0-18.24-7T37.66,62q0-12.77,7.31-19.92t20.26-7.14a39.21,39.21,0,0,1,15.66,3.25l-3.72,8.95a26.55,26.55,0,0,0-12-2.89A14.84,14.84,0,0,0,53.54,49.1Q49.17,54,49.17,62.19q0,8.59,3.52,13.12t10.23,4.53A36,36,0,0,0,70,79.12v-11H60Z"/></g></g></svg>