<?xml version="1.0" encoding="utf-8"?>
<!-- Generator: Adobe Illustrator 21.1.0, SVG Export Plug-In . SVG Version: 6.00 Build 0)  -->
<svg version="1.1" id="Layer_1" xmlns="http://www.w3.org/2000/svg" xmlns:xlink="http://www.w3.org/1999/xlink" x="0px" y="0px"
	 viewBox="0 0 64 64" style="enable-background:new 0 0 64 64;" xml:space="preserve">
<style type="text/css">
	.st0{fill:#FFFFFF;}
	.st1{fill:#808080;}
</style>
<circle class="st0" cx="32" cy="32" r="28.3"/>
<g>
	<path class="st1" d="M31.9,0c9,0,16.6,3.1,22.7,9.3C60.9,15.5,64,23,64,32c0,9-3,16.5-9.1,22.5C48.4,60.8,40.7,64,31.9,64
		c-8.6,0-16.2-3.1-22.5-9.4C3.1,48.3,0,40.8,0,32c0-8.8,3.1-16.3,9.4-22.7C15.6,3.1,23.1,0,31.9,0z M32.1,5.8
		c-7.3,0-13.4,2.6-18.5,7.7C8.4,18.8,5.8,25,5.8,32c0,7.1,2.6,13.2,7.8,18.4c5.2,5.2,11.4,7.8,18.5,7.8c7.1,0,13.3-2.6,18.6-7.8
		c5-4.8,7.5-11,7.5-18.3c0-7.3-2.6-13.5-7.7-18.6C45.5,8.3,39.3,5.8,32.1,5.8z M40.6,24.1v13.1H37v15.5H27V37.1h-3.7V24.1
		c0-0.6,0.2-1.1,0.6-1.5c0.4-0.4,0.9-0.6,1.5-0.6h13.1c0.5,0,1,0.2,1.4,0.6C40.4,23,40.6,23.5,40.6,24.1z M27.5,15.8
		c0-3,1.5-4.5,4.5-4.5s4.5,1.5,4.5,4.5c0,3-1.5,4.5-4.5,4.5S27.5,18.8,27.5,15.8z"/>
</g>
</svg>
