<?xml version="1.0" encoding="utf-8"?>
<!-- Generator: Adobe Illustrator 21.1.0, SVG Export Plug-In . SVG Version: 6.00 Build 0)  -->
<svg version="1.1" id="Layer_1" xmlns="http://www.w3.org/2000/svg" xmlns:xlink="http://www.w3.org/1999/xlink" x="0px" y="0px"
	 viewBox="0 0 64 64" style="enable-background:new 0 0 64 64;" xml:space="preserve">
<style type="text/css">
	.st0{fill:#FFFFFF;}
	.st1{fill:#808080;}
</style>
<g>
	<circle class="st0" cx="31.4" cy="31.9" r="28.9"/>
	<path class="st1" d="M54.7,9.3C48.5,3.1,40.9,0,32,0C23.1,0,15.6,3.1,9.5,9.3C3.1,15.7,0,23.3,0,32c0,8.7,3.1,16.3,9.5,22.6
		C15.8,60.9,23.3,64,32,64c8.8,0,16.4-3.2,22.9-9.5C61,48.5,64,41,64,32C64,23,60.9,15.5,54.7,9.3z M50.7,50.3
		c-5.3,5.2-11.5,7.8-18.7,7.8c-7.2,0-13.3-2.6-18.5-7.8S5.8,39.1,5.8,32c0-3,0.5-5.8,1.4-8.5l8.5,3.8H15V31h3c0,0.5-0.1,1.1-0.1,1.6
		v0.9H15v3.8h3.5c0.5,2.8,1.6,5.1,3,7c3,4,7.8,6.1,13.1,6.1c3.4,0,6.5-1,8.4-2l-1.3-5.9c-1.1,0.6-3.6,1.4-6.1,1.4
		c-2.7,0-5.2-0.8-6.9-2.7c-0.8-0.9-1.4-2.1-1.8-3.8h11.6l16.5,7.3C53.9,46.7,52.5,48.6,50.7,50.3z M29.9,33.6L29.9,33.6L29.9,33.6
		L29.9,33.6z M39.9,31h0.5v-3.8h-9.1l-3.7-1.6c0.3-0.7,0.7-1.4,1.1-1.9c1.7-2,4-2.9,6.6-2.9c2.4,0,4.6,0.7,5.9,1.3l1.5-6.1
		c-1.9-0.9-4.8-1.6-8-1.6c-5,0-9.3,2-12.4,5.5c-0.7,0.8-1.3,1.7-1.8,2.6L10,17.8c1-1.5,2.2-3,3.6-4.4c5-5.1,11.2-7.7,18.4-7.7
		c7.3,0,13.4,2.6,18.5,7.7c5.1,5.1,7.7,11.3,7.7,18.6c0,2.4-0.3,4.7-0.8,6.8L39.9,31z"/>
</g>
</svg>
