<?xml version="1.0" encoding="utf-8"?>
<!-- Generator: Adobe Illustrator 21.1.0, SVG Export Plug-In . SVG Version: 6.00 Build 0)  -->
<svg version="1.1" id="Layer_1" xmlns="http://www.w3.org/2000/svg" xmlns:xlink="http://www.w3.org/1999/xlink" x="0px" y="0px"
	 viewBox="0 0 64 64" style="enable-background:new 0 0 64 64;" xml:space="preserve">
<style type="text/css">
	.st0{fill:#FFFFFF;}
	.st1{fill:#808080;}
</style>
<g>
	<circle class="st0" cx="32.5" cy="31.5" r="28.4"/>
	<path class="st1" d="M54.7,9.3C48.5,3.1,40.9,0,32,0C23.1,0,15.6,3.1,9.5,9.3C3.2,15.7,0,23.3,0,32c0,8.7,3.2,16.3,9.5,22.6
		C15.8,60.9,23.3,64,32,64c8.8,0,16.4-3.2,22.9-9.5C61,48.5,64,41,64,32C64,23,60.9,15.5,54.7,9.3z M50.7,50.3
		c-5.3,5.2-11.5,7.8-18.7,7.8c-7.2,0-13.3-2.6-18.5-7.8C8.4,45.2,5.8,39.1,5.8,32c0-2.7,0.4-5.3,1.2-7.8l16.4,7.3h-3.6v5h7.5
		l0.7,1.5v2.4h-8.2v5h8.2v7.2h8v-7.2h8.3v-4.6l10.4,4.7C53.6,47.2,52.3,48.8,50.7,50.3z M43.3,40.4h-7.4V38l0.4-0.7L43.3,40.4z
		 M44.2,33.8v-2.3h-5l8.1-15h-8.5l-5.6,12.4l-3-1.3l-5.1-11.1h-8.5l3.5,6.6L9.6,18.4c1.1-1.7,2.4-3.4,4-5c5-5.1,11.2-7.7,18.4-7.7
		c7.3,0,13.4,2.6,18.5,7.7c5.1,5.1,7.7,11.3,7.7,18.6c0,2.7-0.3,5.2-1,7.6L44.2,33.8z"/>
</g>
</svg>
