<?xml version="1.0" encoding="utf-8"?>
<!-- Generator: Adobe Illustrator 21.1.0, SVG Export Plug-In . SVG Version: 6.00 Build 0)  -->
<svg version="1.1" id="Layer_1" xmlns="http://www.w3.org/2000/svg" xmlns:xlink="http://www.w3.org/1999/xlink" x="0px" y="0px"
	 viewBox="0 0 64 64" style="enable-background:new 0 0 64 64;" xml:space="preserve">
<style type="text/css">
	.st0{fill:#FFFFFF;}
	.st1{fill:#808080;}
</style>
<g>
	<circle class="st0" cx="32" cy="32.2" r="29.5"/>
	<g>
		<path class="st1" d="M31.9,0c9,0,16.6,3.1,22.7,9.3C60.9,15.4,64,23,64,32c0,9-3,16.5-9.1,22.5C48.4,60.8,40.7,64,31.9,64
			c-8.7,0-16.2-3.2-22.5-9.5C3.1,48.2,0,40.7,0,32c0-8.8,3.1-16.3,9.4-22.7C15.6,3.1,23.1,0,31.9,0z M7.2,23.4
			c-1,2.6-1.4,5.5-1.4,8.6c0,7.1,2.6,13.2,7.8,18.4c5.2,5.1,11.4,7.7,18.5,7.7c7.2,0,13.4-2.6,18.6-7.8c1.9-1.8,3.3-3.7,4.4-5.6
			L43,39.3c-0.4,2-1.4,3.7-3.1,4.9c-1.6,1.3-3.5,2-5.7,2.2v4.9h-3.7v-4.9c-3.5,0-6.8-1.3-9.7-3.8l4.4-4.5c2.1,1.9,4.5,2.9,7.1,2.9
			c1.1,0,2-0.2,2.8-0.7c0.8-0.5,1.2-1.3,1.2-2.5c0-0.8-0.3-1.4-0.9-1.9l-3.1-1.3l-3.8-1.7l-5.1-2.2L7.2,23.4z M32.1,5.7
			c-7.3,0-13.4,2.6-18.5,7.7c-1.3,1.3-2.4,2.7-3.5,4.3l12.2,5.5c0.5-1.7,1.5-3,3-4c1.5-1,3.2-1.6,5.2-1.7v-4.9h3.7v4.9
			c2.9,0.2,5.6,1.1,8,3l-4.2,4.3c-1.8-1.3-3.6-1.9-5.5-1.9c-1,0-1.9,0.2-2.7,0.6c-0.8,0.4-1.2,1-1.2,1.9c0,0.3,0.1,0.5,0.3,0.8
			l4.1,1.8l2.8,1.3l5.1,2.3l16.4,7.3c0.5-2.2,0.8-4.5,0.8-6.9c0-7.4-2.6-13.5-7.7-18.6C45.5,8.3,39.3,5.7,32.1,5.7z"/>
	</g>
</g>
</svg>
