<?xml version="1.0" encoding="utf-8"?>
<!-- Generator: Adobe Illustrator 21.1.0, SVG Export Plug-In . SVG Version: 6.00 Build 0)  -->
<svg version="1.1" id="Layer_1" xmlns="http://www.w3.org/2000/svg" xmlns:xlink="http://www.w3.org/1999/xlink" x="0px" y="0px"
	 viewBox="0 0 64 64" style="enable-background:new 0 0 64 64;" xml:space="preserve">
<style type="text/css">
	.st0{fill:#FFFFFF;}
	.st1{fill:#808080;}
</style>
<g>
	<circle class="st0" cx="31.6" cy="32.3" r="29"/>
	<g>
		<path class="st1" d="M31.9,0c9,0,16.5,3.1,22.7,9.3C60.9,15.5,64,23,64,32c0,9-3,16.5-9.1,22.5C48.4,60.8,40.8,64,31.9,64
			c-8.6,0-16.2-3.1-22.5-9.4C3.1,48.3,0,40.8,0,32c0-8.7,3.1-16.3,9.4-22.7C15.6,3.1,23.1,0,31.9,0z M32.1,5.8
			c-7.3,0-13.4,2.6-18.5,7.7C8.4,18.8,5.8,25,5.8,32c0,7.1,2.6,13.3,7.8,18.4c5.2,5.2,11.4,7.8,18.5,7.8c7.1,0,13.3-2.6,18.6-7.8
			c5-4.9,7.5-11,7.5-18.3c0-7.3-2.6-13.5-7.7-18.5C45.5,8.3,39.3,5.8,32.1,5.8z M44.1,24.5v5.5H20.9v-5.5H44.1z M44.1,34.7v5.5H20.9
			v-5.5C20.9,34.7,44.1,34.7,44.1,34.7z"/>
	</g>
</g>
</svg>
