<?xml version="1.0" encoding="utf-8"?>
<!-- Generator: Adobe Illustrator 21.1.0, SVG Export Plug-In . SVG Version: 6.00 Build 0)  -->
<svg version="1.1" id="Layer_1" xmlns="http://www.w3.org/2000/svg" xmlns:xlink="http://www.w3.org/1999/xlink" x="0px" y="0px"
	 viewBox="0 0 64 64" style="enable-background:new 0 0 64 64;" xml:space="preserve">
<style type="text/css">
	.st0{fill:#FFFFFF;}
	.st1{fill:#808080;}
</style>
<g>
	<circle class="st0" cx="32" cy="31.9" r="28.6"/>
	<g>
		<path class="st1" d="M31.9,0c9,0,16.6,3.1,22.8,9.3C60.9,15.5,64,23,64,32c0,9-3,16.4-9.1,22.5C48.4,60.8,40.8,64,31.9,64
			c-8.7,0-16.2-3.1-22.5-9.4C3.2,48.3,0,40.8,0,32c0-8.8,3.1-16.3,9.4-22.7C15.6,3.1,23.1,0,31.9,0z M32,5.8
			c-7.3,0-13.4,2.6-18.4,7.7C8.4,18.7,5.8,24.9,5.8,32s2.6,13.2,7.8,18.4c5.2,5.2,11.4,7.8,18.5,7.8s13.4-2.6,18.6-7.8
			c5-4.9,7.5-11,7.5-18.3c0-7.3-2.6-13.5-7.7-18.6C45.5,8.3,39.3,5.8,32,5.8z M17,40.7V23h8.8c4.3,0,6.5,2,6.5,6
			c0,0.7-0.1,1.3-0.3,2c-0.2,0.6-0.6,1.3-1.1,1.9c-0.5,0.6-1.3,1.1-2.3,1.5c-1,0.4-2.2,0.6-3.7,0.6h-3.5v5.7L17,40.7L17,40.7z
			 M21.4,26.3v5.4h3.8c0.9,0,1.6-0.3,2.1-0.8c0.5-0.5,0.7-1.2,0.7-1.9c0-1.8-1-2.7-2.9-2.7L21.4,26.3L21.4,26.3L21.4,26.3z
			 M33.5,40.7V23h6.9c2.8,0,5,0.7,6.6,2.2c1.6,1.4,2.4,3.7,2.4,6.7c0,3-0.8,5.2-2.4,6.7c-1.6,1.4-3.8,2.2-6.6,2.2H33.5z M37.9,26.7
			V37h2.6c1.6,0,2.7-0.5,3.4-1.4c0.7-0.9,1.1-2.2,1.1-3.7c0-1.6-0.4-2.8-1.1-3.7c-0.7-0.9-1.9-1.4-3.5-1.4L37.9,26.7L37.9,26.7z"/>
	</g>
</g>
</svg>
