<?xml version="1.0" encoding="utf-8"?>
<!-- Generator: Adobe Illustrator 21.1.0, SVG Export Plug-In . SVG Version: 6.00 Build 0)  -->
<svg version="1.1" id="Layer_1" xmlns="http://www.w3.org/2000/svg" xmlns:xlink="http://www.w3.org/1999/xlink" x="0px" y="0px"
	 viewBox="0 0 64 64" style="enable-background:new 0 0 64 64;" xml:space="preserve">
<style type="text/css">
	.st0{fill:#FFFFFF;}
	.st1{fill:#808080;}
</style>
<g>
	<circle class="st0" cx="31.4" cy="32.1" r="29.1"/>
	<g>
		<path class="st1" d="M31.9,0c9,0,16.5,3.1,22.7,9.3C60.9,15.5,64,23,64,32c0,9-3,16.5-9.1,22.5C48.4,60.8,40.8,64,31.9,64
			c-8.6,0-16.2-3.1-22.5-9.4C3.1,48.3,0,40.8,0,32c0-8.7,3.1-16.3,9.4-22.7C15.6,3.1,23.1,0,31.9,0z M32.1,5.8
			c-7.3,0-13.4,2.6-18.5,7.7C8.4,18.8,5.8,25,5.8,32c0,7.1,2.6,13.3,7.8,18.4c5.2,5.2,11.4,7.8,18.5,7.8c7.1,0,13.3-2.6,18.6-7.8
			c5-4.9,7.5-11,7.5-18.3c0-7.3-2.6-13.5-7.7-18.5C45.5,8.3,39.3,5.8,32.1,5.8z M17.8,27.5c0.6-3.9,2.2-7,4.7-9.1
			c2.6-2.2,5.7-3.2,9.3-3.2c5,0,9,1.6,12,4.9c3,3.2,4.5,7.4,4.5,12.5c0,4.9-1.5,9-4.6,12.3c-3.1,3.3-7.1,4.9-12,4.9
			c-3.6,0-6.7-1.1-9.4-3.3c-2.6-2.2-4.2-5.3-4.7-9.3h8.1c0.2,3.9,2.5,5.8,7,5.8c2.2,0,4.1-1,5.4-2.9c1.4-1.9,2.1-4.5,2.1-7.8
			c0-3.4-0.6-6-1.9-7.7c-1.3-1.8-3.1-2.7-5.4-2.7c-4.3,0-6.7,1.9-7.2,5.7h2.3l-6.3,6.3l-6.3-6.3L17.8,27.5L17.8,27.5z"/>
	</g>
</g>
</svg>
