<?xml version="1.0" encoding="utf-8"?>
<!-- Generator: Adobe Illustrator 21.1.0, SVG Export Plug-In . SVG Version: 6.00 Build 0)  -->
<svg version="1.1" id="Layer_1" xmlns="http://www.w3.org/2000/svg" xmlns:xlink="http://www.w3.org/1999/xlink" x="0px" y="0px"
	 viewBox="0 0 64 64" style="enable-background:new 0 0 64 64;" xml:space="preserve">
<style type="text/css">
	.st0{fill:#FFFFFF;}
	.st1{fill:#808080;}
</style>
<g>
	<circle class="st0" cx="32.5" cy="32" r="29.5"/>
	<g>
		<path class="st1" d="M31.9,0c9,0,16.6,3.1,22.8,9.3C60.9,15.5,64,23,64,32c0,9-3,16.4-9.1,22.5C48.4,60.8,40.8,64,31.9,64
			c-8.7,0-16.2-3.1-22.5-9.4C3.2,48.3,0,40.8,0,32c0-8.8,3.1-16.3,9.4-22.7C15.6,3.1,23.1,0,31.9,0z M32,5.8
			c-7.3,0-13.4,2.6-18.4,7.7C8.4,18.7,5.8,24.9,5.8,32s2.6,13.2,7.8,18.4c5.2,5.2,11.4,7.8,18.5,7.8s13.4-2.6,18.6-7.8
			c5-4.9,7.5-11,7.5-18.3c0-7.3-2.6-13.5-7.7-18.6C45.5,8.3,39.3,5.8,32,5.8z M32.5,12.6c0.4,0,0.7,0.1,1,0.3
			c0.3,0.2,0.4,0.6,0.5,0.9v0.2l0.9,13.8l0.6-7.7c0-0.4,0.1-0.7,0.4-1c0.3-0.3,0.6-0.4,1-0.4c0.4,0,0.7,0.1,1,0.4
			c0.3,0.3,0.4,0.6,0.4,1v0.2L39,30.8l0.7-8.3c0-0.3,0.2-0.6,0.4-0.9c0.2-0.2,0.5-0.3,0.9-0.3s0.6,0.1,0.9,0.3
			c0.3,0.2,0.4,0.5,0.5,0.8l1.5,12.5l0.7-1.7c0.2-0.6,0.7-0.9,1.3-0.9h7.5v2.7h-6.6l-2.3,5.7c-0.3,0.7-0.8,1-1.5,0.9
			c-0.3,0-0.6-0.2-0.8-0.4s-0.3-0.5-0.4-0.9l-0.5-4.1l-1,11.9c0,0.3-0.2,0.6-0.4,0.9s-0.5,0.3-0.9,0.3c-0.3,0-0.6-0.1-0.9-0.3
			c-0.3-0.2-0.4-0.5-0.5-0.9v-0.2l-0.8-9.9l-0.7,9.3c-0.1,0.3-0.2,0.6-0.5,0.9c-0.2,0.2-0.5,0.3-0.9,0.3c-0.3,0-0.6-0.1-0.9-0.3
			s-0.4-0.5-0.5-0.9v-0.2l-0.7-11.1l-0.7,12.2v0.2c0,0.4-0.1,0.7-0.4,1s-0.6,0.4-1,0.4c-0.4,0-0.7-0.1-1-0.4c-0.3-0.3-0.4-0.6-0.4-1
			v-0.1l-0.7-11.3l-0.7,10.9v0.2c-0.1,0.3-0.2,0.6-0.5,0.9c-0.2,0.2-0.5,0.3-0.9,0.3s-0.6-0.1-0.9-0.3c-0.3-0.2-0.4-0.5-0.5-0.9
			v-0.2h-0.1v-0.2l-0.8-11.4l-0.6,7.3c0,0.3-0.2,0.6-0.5,0.9c-0.3,0.2-0.6,0.3-0.9,0.3s-0.6-0.1-0.9-0.3c-0.2-0.2-0.4-0.5-0.5-0.8
			l-1.4-9.8l-0.2,0.3c-0.2,0.5-0.6,0.7-1.3,0.7h-6.6v-2.7H17l1.8-3.6c0.3-0.6,0.7-0.9,1.4-0.8c0.7,0.1,1.1,0.5,1.2,1.1l0.4,2.6
			l1.1-12.6c0-0.4,0.1-0.7,0.4-1c0.3-0.3,0.6-0.4,1-0.4s0.7,0.1,1,0.4c0.3,0.3,0.4,0.6,0.4,1v0.2l0.6,8.9l0.9-11.9v-0.2
			c0-0.3,0.2-0.6,0.4-0.9c0.2-0.2,0.5-0.3,0.9-0.3s0.6,0.1,0.9,0.3c0.3,0.2,0.4,0.5,0.5,0.9v0.2l0.7,10.4l0.8-12.6v-0.2
			c0-0.3,0.1-0.6,0.4-0.9C31.9,12.8,32.2,12.7,32.5,12.6z"/>
	</g>
</g>
</svg>
