<?xml version="1.0" encoding="utf-8"?>
<!-- Generator: Adobe Illustrator 21.1.0, SVG Export Plug-In . SVG Version: 6.00 Build 0)  -->
<svg version="1.1" id="Layer_1" xmlns="http://www.w3.org/2000/svg" xmlns:xlink="http://www.w3.org/1999/xlink" x="0px" y="0px"
	 viewBox="0 0 64 64" style="enable-background:new 0 0 64 64;" xml:space="preserve">
<style type="text/css">
	.st0{fill:#FFFFFF;}
	.st1{fill:#808080;}
</style>
<g>
	<circle class="st0" cx="31.9" cy="31.9" r="28"/>
	<g>
		<path class="st1" d="M32,0C23.1,0,15.6,3.1,9.5,9.3C3.1,15.7,0,23.3,0,32c0,8.7,3.1,16.3,9.5,22.6C15.8,60.9,23.3,64,32,64
			c8.8,0,16.4-3.2,22.9-9.5C61,48.5,64,41,64,32c0-9-3.1-16.5-9.3-22.7C48.5,3.1,40.9,0,32,0z M32,5.8c7.3,0,13.4,2.6,18.5,7.7
			c5.1,5.1,7.7,11.3,7.7,18.6c0,7.4-2.5,13.5-7.5,18.3c-5.3,5.2-11.5,7.8-18.7,7.8c-7.2,0-13.3-2.6-18.5-7.8
			C8.4,45.2,5.8,39.1,5.8,32c0-7.1,2.6-13.3,7.9-18.6C18.6,8.3,24.8,5.8,32,5.8z"/>
		<path class="st1" d="M45.9,32.3c-0.6,0-1.2,0.4-1.4,0.9L44,34.4l-1.4-12c-0.1-0.8-0.7-1.3-1.5-1.3c-0.8,0-1.4,0.6-1.5,1.4L39,29.2
			l-0.7-8.9c-0.1-0.8-0.7-1.4-1.5-1.4c-0.8,0-1.4,0.6-1.5,1.4l-0.5,5.8l-0.8-12.2c0-0.8-0.7-1.4-1.5-1.4c-0.8,0-1.4,0.6-1.5,1.4
			l-0.7,10.8l-0.6-8.6c-0.1-0.8-0.7-1.4-1.5-1.4c-0.8,0-1.4,0.6-1.5,1.4l-0.7,10.3l-0.5-7.3c-0.1-0.8-0.7-1.4-1.5-1.4
			c-0.8,0-1.4,0.6-1.5,1.4l-1,11.6l-0.2-1.6c-0.1-0.7-0.6-1.2-1.3-1.3c-0.7-0.1-1.3,0.2-1.6,0.8L17,32.3h-5.7v3h6.6
			c0.6,0,1.1-0.3,1.3-0.8l1.4,9.4c0.1,0.8,0.8,1.3,1.5,1.3c0.8,0,1.4-0.6,1.5-1.4l0.5-5.6l0.7,10.1c0.1,0.8,0.7,1.4,1.5,1.4
			c0.8,0,1.4-0.6,1.5-1.4l0.6-9.1l0.6,9.5c0.1,0.8,0.7,1.4,1.5,1.4c0.8,0,1.4-0.6,1.5-1.4l0.6-10.4l0.6,9.3c0,0.8,0.7,1.4,1.5,1.4
			c0.8,0,1.4-0.6,1.5-1.4l0.6-7.6l0.6,8.3c0.1,0.8,0.7,1.4,1.5,1.4c0.8,0,1.4-0.6,1.5-1.4l0.9-10.7l0.3,2.9c0.1,0.7,0.6,1.2,1.3,1.3
			c0.7,0.1,1.3-0.3,1.6-0.9l2.3-5.6h6.5v-3L45.9,32.3L45.9,32.3z M35.8,33H33v2.8c0,0.5-0.4,1-1,1c-0.5,0-1-0.4-1-1V33h-2.8
			c-0.5,0-1-0.4-1-1c0-0.5,0.4-1,1-1H31v-2.8c0-0.5,0.4-1,1-1c0.5,0,1,0.4,1,1V31h2.8c0.5,0,1,0.4,1,1C36.8,32.5,36.3,33,35.8,33z"
			/>
	</g>
</g>
</svg>
