<svg xmlns="http://www.w3.org/2000/svg" viewBox="10346 -4095 65 65">
  <defs>
    <style>
      .cls-1 {
        fill: #bcbcbc;
      }

      .cls-2 {
        fill: none;
      }
    </style>
  </defs>
  <g id="Group_4457" data-name="Group 4457" transform="translate(9833 -4695)">
    <g id="Group_4453" data-name="Group 4453" transform="translate(-0.428 -0.815)">
      <path id="Path_2100" data-name="Path 2100" class="cls-1" d="M58.2,16.222H46.691L38.679,9.614a.709.709,0,0,0-.9,0L29.76,16.222H18.253a.709.709,0,0,0-.709.709v9.4L9.746,32.8h0a.709.709,0,0,0-.142.184v.05a.709.709,0,0,0-.064.284v32.9a.709.709,0,0,0,.709.709H66.273a.709.709,0,0,0,.709-.709V33.35a.709.709,0,0,0-.064-.284v-.05a.709.709,0,0,0-.142-.184h0l-7.8-6.466V16.93a.709.709,0,0,0-.78-.709Zm-19.972-5.14,6.239,5.14H31.986Zm7.955,6.558H57.488V39.015L38.225,53.379,18.962,39.015V17.639ZM17.544,28.175v9.784L11.32,33.315ZM10.88,65.531V34.761l6.785,5.055a.709.709,0,0,0,.4.3L37.8,54.833a.709.709,0,0,0,.851,0L58.382,40.114a.709.709,0,0,0,.4-.3l6.785-5.055v30.77ZM65.131,33.322l-6.225,4.644V28.175Z" transform="translate(507.889 595.362)"/>
      <path id="Path_1861" data-name="Path 1861" class="cls-1" d="M1121.6,229.3l.923-1.591L1119.584,226l-.923,1.591a7.408,7.408,0,0,0-7.492,1.943l2.489,1.457a4.628,4.628,0,1,1-1.749,2.975l-2.489-1.457a7.4,7.4,0,0,0,2.052,7.565l-.923,1.591,2.938,1.712.947-1.627A7.394,7.394,0,0,0,1121.6,229.3Z" transform="translate(-570.661 393.018)"/>
    </g>
    <rect id="Rectangle_942" data-name="Rectangle 942" class="cls-2" width="65" height="65" transform="translate(513 600)"/>
  </g>
</svg>
