<svg xmlns="http://www.w3.org/2000/svg" viewBox="10515 -4097 69.121 69.62">
  <defs>
    <style>
      .cls-1 {
        fill: #bcbcbc;
      }

      .cls-2 {
        fill: none;
      }
    </style>
  </defs>
  <g id="Group_4458" data-name="Group 4458" transform="translate(9833 -4695)">
    <g id="Group_4454" data-name="Group 4454" transform="translate(0.176 -1.974)">
      <path id="Path_2096" data-name="Path 2096" class="cls-1" d="M15.552,32.581c-.006.173-.013.346-.012.521A16.439,16.439,0,1,0,32.865,16.835c.007-.173.013-.346.012-.521A16.439,16.439,0,0,0,0,16.292,16.409,16.409,0,0,0,15.552,32.581Zm31.044.541A14.618,14.618,0,1,1,31.969,18.615,14.551,14.551,0,0,1,46.6,33.122ZM16.429,1.806A14.6,14.6,0,0,1,31.056,16.313c0,.175-.007.349-.012.522A16.385,16.385,0,0,0,15.707,30.782a14.495,14.495,0,0,1,.722-28.976Z" transform="translate(750.945 633.612) rotate(132)"/>
      <path id="Path_2097" data-name="Path 2097" class="cls-1" d="M7.115,3.214l5.5,3.67,1.015-1.5L5.559,0,0,8.2,1.511,9.208,5.315,3.6A11.03,11.03,0,0,0,16.336,13.9V12.09A9.213,9.213,0,0,1,7.115,3.214Z" transform="translate(726.505 609.272) rotate(132)"/>
      <path id="Path_2098" data-name="Path 2098" class="cls-1" d="M9.22,10.682l-5.5-3.67-1.015,1.5,8.07,5.387,5.559-8.2L14.824,4.688l-3.8,5.608A11.031,11.031,0,0,0,0,0V1.806A9.213,9.213,0,0,1,9.22,10.682Z" transform="translate(727.293 657.444) rotate(132)"/>
      <path id="Path_1861" data-name="Path 1861" class="cls-1" d="M1122.684,229.59l1-1.729L1120.494,226l-1,1.729a8.052,8.052,0,0,0-8.143,2.112l2.705,1.584a5.03,5.03,0,1,1-1.9,3.233l-2.705-1.584a8.04,8.04,0,0,0,2.23,8.222l-1,1.729,3.194,1.861,1.03-1.768a8.036,8.036,0,0,0,7.786-13.527Z" transform="translate(-412.347 399.606)"/>
    </g>
    <rect id="Rectangle_941" data-name="Rectangle 941" class="cls-2" width="65" height="65" transform="translate(684 600)"/>
  </g>
</svg>
