<svg xmlns="http://www.w3.org/2000/svg" viewBox="10174 -4095 65 65">
  <defs>
    <style>
      .cls-1 {
        fill: #bcbcbc;
      }

      .cls-2 {
        fill: none;
      }
    </style>
  </defs>
  <g id="Group_4456" data-name="Group 4456" transform="translate(9833 -4695)">
    <g id="Group_4452" data-name="Group 4452" transform="translate(-0.656 1.616)">
      <path id="Path_2080" data-name="Path 2080" class="cls-1" d="M93.7,174.482s-5.778-7.967-7.785-10.329q-3.644-4.281-7.281-8.555l-6.309-7.42c-1.014-1.192-2.049-2.376-3.049-3.582-.014-.014-.028-.036-.042-.05a1.038,1.038,0,0,1,0-1.413.985.985,0,0,1,1.394,0c.838.985,1.676,1.976,2.521,2.961q3.01,3.542,6.02,7.078,3.644,4.281,7.281,8.555l6.309,7.42c1.014,1.192,2.049,2.376,3.049,3.582.014.014.028.036.042.05a1.038,1.038,0,0,1,0,1.413C95.5,174.556,94.247,175.067,93.7,174.482Z" transform="translate(305.493 465.589)"/>
      <path id="Path_2081" data-name="Path 2081" class="cls-1" d="M235.354,75.589c-7.33,2.412-15.759,6.1-20.329,12.39a36.617,36.617,0,0,0-3.267,5.415.985.985,0,0,1-1.352.357,1.028,1.028,0,0,1-.352-1.37,40.353,40.353,0,0,1,16.828-17.373,36.988,36.988,0,0,1,6.2-2.676C234.257,71.792,236.058,75.137,235.354,75.589Z" transform="translate(157.373 531.111)"/>
      <path id="Path_2090" data-name="Path 2090" class="cls-1" d="M427.731,408.6a15.268,15.268,0,0,1,8.61,2.667,15.708,15.708,0,0,1,.21,25.724,15.227,15.227,0,0,1-17.883-.184,15.724,15.724,0,0,1-1.31-24.132,15.283,15.283,0,0,1,8-3.885,15.64,15.64,0,0,1,2.371-.19.8.8,0,0,1,0,1.609c-.369,0-.743.011-1.112.04-.17.012-.34.029-.51.046l-.272.034c.13-.017-.125.017-.176.029a14.584,14.584,0,0,0-2.093.494c-.323.1-.647.218-.964.345-.079.034-.164.063-.244.1.119-.052-.091.04-.125.052q-.238.1-.476.224a14.63,14.63,0,0,0-1.809,1.057c-.136.092-.267.184-.4.282-.068.052-.142.1-.21.155-.028.023-.057.046-.091.069.091-.069-.006.006-.045.035-.261.213-.516.431-.766.661a14.41,14.41,0,0,0-1.429,1.523c-.057.069-.108.138-.164.207l-.068.086c.023-.029.079-.109-.011.017s-.21.282-.306.425c-.2.287-.391.586-.567.885s-.352.615-.5.931c-.074.149-.147.293-.216.443-.04.08-.074.161-.108.241l-.068.161a14.782,14.782,0,0,0-.658,2.006c-.091.35-.164.707-.227,1.069-.028.167-.057.339-.079.506.017-.138-.011.1-.017.138-.011.1-.023.213-.034.316a14.926,14.926,0,0,0-.04,2.253c.023.356.051.713.1,1.069-.017-.138.017.1.023.138.011.092.028.184.045.27.028.178.062.362.1.54a14.449,14.449,0,0,0,.6,2.075c.057.155.119.31.182.466.051.121-.045-.1.006.017.017.034.028.069.045.1.04.092.079.184.125.276q.221.483.476.948a13.137,13.137,0,0,0,2.41,3.218c.25.247.5.483.766.713.125.1.244.213.374.31.04.029.079.063.119.092-.011-.012-.085-.069-.011-.012s.159.121.238.178a14.822,14.822,0,0,0,1.736,1.1c.306.167.624.322.941.466.045.023.221.1.181.08s.153.063.187.075l.493.19a14.269,14.269,0,0,0,2.065.569q.247.052.493.086c.091.017.181.029.267.04l.176.023c.363.04.732.069,1.1.086a14.5,14.5,0,0,0,2.342-.1l.13-.017c-.108.017.028-.006.045-.006.1-.017.2-.029.295-.046.2-.035.391-.069.584-.115.386-.08.766-.184,1.146-.293s.743-.241,1.106-.385c.079-.029.153-.063.233-.092.13-.052-.085.04.04-.017l.113-.052c.187-.086.374-.172.561-.264a15.2,15.2,0,0,0,1.945-1.167,10.015,10.015,0,0,0,.817-.632q.442-.371.851-.776a13.615,13.615,0,0,0,2.688-3.707,14,14,0,0,0,1.441-5.247,15.337,15.337,0,0,0-.034-2.5c-.011-.092-.017-.184-.028-.276-.006-.04-.034-.282-.017-.138-.023-.184-.051-.362-.085-.546-.062-.356-.142-.713-.227-1.069s-.187-.7-.3-1.035c-.051-.155-.108-.316-.165-.471-.028-.086-.062-.167-.1-.253-.017-.04-.119-.293-.062-.161a13.869,13.869,0,0,0-.941-1.856c-.182-.3-.369-.6-.573-.885-.1-.144-.2-.287-.306-.425-.057-.075,0,0,.011.012l-.068-.086c-.062-.08-.125-.155-.187-.236A15.1,15.1,0,0,0,437,413.8c-.255-.236-.522-.46-.794-.678-.068-.057,0,0,.011.012-.028-.023-.057-.046-.091-.069-.068-.052-.142-.1-.21-.155-.142-.1-.284-.207-.425-.3a14.708,14.708,0,0,0-1.815-1.057l-.476-.224c-.034-.017-.2-.086-.085-.04-.091-.04-.187-.075-.278-.115-.329-.132-.664-.247-1-.356a14.63,14.63,0,0,0-2.1-.483c-.04-.006-.227-.034-.1-.017l-.272-.035c-.17-.017-.34-.034-.51-.046-.369-.029-.743-.04-1.112-.04a.809.809,0,0,1-.794-.8A.787.787,0,0,1,427.731,408.6Z" transform="translate(-65.683 218.795)"/>
      <path id="Path_2094" data-name="Path 2094" class="cls-1" d="M608.7,148.84q-.76-2.387-1.521-4.78a1.01,1.01,0,0,1,.69-1.227,1,1,0,0,1,1.211.7q.761,2.387,1.521,4.78a.987.987,0,1,1-1.9.528Z" transform="translate(-246.908 465.633)"/>
      <path id="Path_2095" data-name="Path 2095" class="cls-1" d="M706.3,246.478c-1.289-1.042-2.577-2.09-3.873-3.132a1.017,1.017,0,0,1,0-1.413,1,1,0,0,1,1.394,0c1.289,1.042,2.577,2.091,3.873,3.132a1.017,1.017,0,0,1,0,1.413.992.992,0,0,1-1.394,0Z" transform="translate(-350.941 373.831)"/>
      <path id="Path_1861" data-name="Path 1861" class="cls-1" d="M1121.905,229.384l.945-1.63L1119.84,226l-.945,1.63a7.589,7.589,0,0,0-7.675,1.99l2.55,1.493a4.741,4.741,0,1,1-1.791,3.048l-2.55-1.493a7.578,7.578,0,0,0,2.1,7.75l-.945,1.63,3.01,1.754.97-1.667a7.575,7.575,0,0,0,7.339-12.751Z" transform="translate(-754.84 408.068)"/>
    </g>
    <rect id="Rectangle_943" data-name="Rectangle 943" class="cls-2" width="65" height="65" transform="translate(341 600)"/>
  </g>
</svg>
