<svg xmlns="http://www.w3.org/2000/svg" viewBox="10686 -4095 65 65">
  <defs>
    <style>
      .cls-1 {
        fill: #bcbcbc;
      }

      .cls-2 {
        fill: none;
      }
    </style>
  </defs>
  <g id="Group_4459" data-name="Group 4459" transform="translate(9833 -4695)">
    <g id="Group_4455" data-name="Group 4455" transform="translate(0.876 -1.649)">
      <path id="Path_2079" data-name="Path 2079" class="cls-1" d="M233.353,155.7h34.68a2.1,2.1,0,0,1,2.153,2.046V172.9H291.75a2.1,2.1,0,0,1,2.153,2.046v23.526a2.1,2.1,0,0,1-2.153,2.046h-34.68a2.1,2.1,0,0,1-2.153-2.046V183.317H233.353a2.1,2.1,0,0,1-2.153-2.046V157.746A2.108,2.108,0,0,1,233.353,155.7Zm34.68,1.416h-34.68a.649.649,0,0,0-.663.629v5.209H268.7v-5.209A.649.649,0,0,0,268.033,157.116ZM232.69,168.179H268.7v-3.808H232.69Zm23.717,30.292a.648.648,0,0,0,.662.629h34.68a.648.648,0,0,0,.662-.629V174.945a.648.648,0,0,0-.662-.629h-34.68a.648.648,0,0,0-.662.629v23.526ZM233.353,181.9h21.563v-6.955a2.1,2.1,0,0,1,2.153-2.046H268.7v-3.3H232.69v11.676A.649.649,0,0,0,233.353,181.9Z" transform="translate(621.924 455.95)"/>
      <path id="Path_1861" data-name="Path 1861" class="cls-1" d="M1121.43,229.376l.91-1.626-2.9-1.75-.911,1.626a7.135,7.135,0,0,0-7.391,1.986l2.456,1.489a4.466,4.466,0,0,1,5.1-.348,4.835,4.835,0,0,1,1.641,6.479,4.486,4.486,0,0,1-6.253,1.7,4.8,4.8,0,0,1-2.216-4.791l-2.456-1.489a7.744,7.744,0,0,0,2.024,7.733l-.91,1.626,2.9,1.75.934-1.663a7.181,7.181,0,0,0,8.325-3.45A7.7,7.7,0,0,0,1121.43,229.376Z" transform="translate(-220.248 408.243)"/>
    </g>
    <rect id="Rectangle_940" data-name="Rectangle 940" class="cls-2" width="65" height="65" transform="translate(853 600)"/>
  </g>
</svg>
